<mxfile host="app.diagrams.net" modified="2023-12-05T03:48:10.214Z" agent="Mozilla/5.0 (Macintosh; Intel Mac OS X 10_15_7) AppleWebKit/605.1.15 (KHTML, like Gecko) Version/17.1.2 Safari/605.1.15" version="22.1.5" etag="i4ue5DmQe8jklKZnaMpQ" type="github">
  <diagram name="Page-1" id="aLXyriTo7gUPUwi7o5uM">
    <mxGraphModel>
      <root>
        <mxCell id="0" />
        <mxCell id="1" parent="0" />
      </root>
    </mxGraphModel>
  </diagram>
</mxfile>
